# xmcd
#
# Track frame offsets:
#	150
#	15004
#	33520
#	54189
#	75260
#	93318
#	113501
#	128918
#	141088
#	159093
#	178579
#
# Disc length: 2588
#
# Revision: 2
# Processed by: cddbd v1.5.1PL0 Copyright (c) Steve Scherf et al.
# Submitted via: CDex 1.50
# Normalized: r1:TRMNUM
#
DISCID=6d0a1a0b
DTITLE=Martin Maxa - Zpovìdnice
DYEAR=1900
DGENRE=MP3 album 1
TTITLE0=Je to prosty
TTITLE1=Pomaly kone
TTITLE2=Casy se meni
TTITLE3=Prodavac iluzi
TTITLE4=Vim o tom svy
TTITLE5=Zpovednice
TTITLE6=Zatim
TTITLE7=Muzeum voskovych figurin
TTITLE8=Basnicka
TTITLE9=Producent
TTITLE10=Bila mista
EXTD=
EXTT0=
EXTT1=
EXTT2=
EXTT3=
EXTT4=
EXTT5=
EXTT6=
EXTT7=
EXTT8=
EXTT9=
EXTT10=
PLAYORDER=
